<svg width="52" height="54" viewBox="0 0 52 54" fill="none" xmlns="http://www.w3.org/2000/svg">
<g clip-path="url(#clip0_449_587)">
<path d="M27.9698 11.05C30.8141 11.05 33.1198 8.74427 33.1198 5.9C33.1198 3.05573 30.8141 0.75 27.9698 0.75C25.1256 0.75 22.8198 3.05573 22.8198 5.9C22.8198 8.74427 25.1256 11.05 27.9698 11.05Z" stroke="white" stroke-width="1.5" stroke-miterlimit="10"/>
<path d="M31.84 12.03C31.69 12.06 31.54 12.11 31.39 12.16C31.25 12.21 31.11 12.27 30.98 12.33C31.25 12.17 31.54 12.09 31.84 12.03Z" stroke="white" stroke-linecap="round" stroke-linejoin="round"/>
<path d="M49.64 52C49.17 52.39 48.6 52.58 48.04 52.58C47.32 52.58 46.61 52.27 46.12 51.67L37.58 41.36C37.27 40.99 37.07 40.53 37.02 40.05L36.42 34.68L36.4 34.47L36.32 34.53L32.32 37.79V50.22C32.32 51.6 31.2 52.72 29.82 52.72C28.44 52.72 27.32 51.6 27.32 50.22V36.6C27.32 35.85 27.66 35.14 28.24 34.66L34.44 29.62L30.96 19.87L26.76 24.82C26.33 25.32 25.73 25.64 25.07 25.69L20.75 26.07L18.41 26.28C18.33 26.29 18.26 26.29 18.19 26.29C16.9 26.29 15.81 25.31 15.7 24.01C15.65 23.4 15.82 22.83 16.14 22.36C16.55 21.77 17.2 21.36 17.97 21.3L23.61 20.8L29.81 13.49L30.34 12.86C30.46 12.72 30.59 12.6 30.73 12.5C30.81 12.44 30.89 12.39 30.98 12.33C31.11 12.27 31.25 12.21 31.39 12.16C31.54 12.11 31.69 12.06 31.84 12.03H31.85C32 12 32.15 11.99 32.3 11.98C33.57 11.94 34.78 12.71 35.22 13.97L41.59 31.79C41.89 32.62 41.8 33.5 41.4 34.22L41.9 38.75L49.97 48.48C50.85 49.54 50.7 51.12 49.64 52Z" stroke="white" stroke-width="1.5" stroke-linecap="round" stroke-linejoin="round"/>
<path d="M20.75 26.0699C20.77 26.1899 20.79 26.3199 20.8 26.4399L23.39 52.1399" stroke="white" stroke-width="1.5" stroke-miterlimit="10" stroke-linecap="round"/>
<path d="M4.29004 46.84L6.34004 26.44C6.58004 24.12 8.53004 22.36 10.86 22.36H16.14" stroke="white" stroke-width="1.5" stroke-miterlimit="10" stroke-linecap="round"/>
<path d="M3.47 52.23C4.97221 52.23 6.19 51.0123 6.19 49.51C6.19 48.0078 4.97221 46.79 3.47 46.79C1.96779 46.79 0.75 48.0078 0.75 49.51C0.75 51.0123 1.96779 52.23 3.47 52.23Z" stroke="white" stroke-width="1.5" stroke-miterlimit="10" stroke-linecap="round"/>
<path d="M21.77 52.13H25.6" stroke="white" stroke-width="1.5" stroke-miterlimit="10" stroke-linecap="round"/>
<path d="M6.12012 34.02H21.4701" stroke="white" stroke-width="1.5" stroke-miterlimit="10" stroke-linecap="round"/>
</g>
<defs>
<clipPath id="clip0_449_587">
<rect width="51.29" height="53.47" fill="white"/>
</clipPath>
</defs>
</svg>
