<svg width="41" height="36" viewBox="0 0 41 36" fill="none" xmlns="http://www.w3.org/2000/svg">
<g clip-path="url(#clip0_655_146)">
<path d="M29.41 18.54C28.75 19.19 28.35 20.09 28.35 21.09C28.35 23.08 29.97 24.7 31.96 24.7H36.01C36.08 24.7 36.14 24.7 36.21 24.7V29.49C36.21 32.26 33.97 34.49 31.21 34.49H5.75C2.99 34.49 0.75 32.26 0.75 29.49V12.7C0.75 9.94001 2.99 7.70001 5.75 7.70001H31.21C33.97 7.70001 36.21 9.94001 36.21 12.7V17.49C36.14 17.48 36.08 17.48 36.01 17.48H31.96C30.97 17.48 30.06 17.89 29.41 18.54Z" stroke="#3E3EDB" stroke-width="1.5" stroke-miterlimit="10"/>
<path d="M39.6096 21.09C39.6096 22.09 39.2096 22.99 38.5596 23.64C37.9496 24.25 37.1296 24.64 36.2096 24.69C36.1396 24.69 36.0796 24.69 36.0096 24.69H31.9596C29.9696 24.69 28.3496 23.07 28.3496 21.08C28.3496 20.08 28.7496 19.18 29.4096 18.53C30.0596 17.88 30.9696 17.47 31.9596 17.47H36.0096C36.0796 17.47 36.1396 17.47 36.2096 17.48C38.1096 17.58 39.6096 19.16 39.6096 21.08V21.09Z" stroke="#3E3EDB" stroke-width="1.5" stroke-miterlimit="10"/>
<path d="M28.9 7.70002V5.22002C28.9 2.31002 26.16 0.170022 23.33 0.880022L5.91 5.26002C2.87 6.02002 0.75 8.75002 0.75 11.88V12.7" stroke="#3E3EDB" stroke-width="1.5" stroke-miterlimit="10"/>
</g>
<defs>
<clipPath id="clip0_655_146">
<rect width="40.36" height="35.23" fill="white"/>
</clipPath>
</defs>
</svg>
